<svg version="1.1" id="Layer_1" xmlns="http://www.w3.org/2000/svg" xmlns:xlink="http://www.w3.org/1999/xlink" x="0px" y="0px"
	 width="100%" height="150" viewBox="0 0 2000 1500" enable-background="new 0 0 2000 1500" xml:space="preserve">
<path fill="#FFFFFF" opacity="1.000000" stroke="none" 
	d="
M1854.000000,1501.000000 
	C1236.000244,1501.000000 618.500366,1501.000000 1.000414,1501.000000 
	C1.000276,1001.000305 1.000276,501.000671 1.000138,1.000750 
	C667.666138,1.000500 1334.332275,1.000500 2000.998779,1.000250 
	C2000.999268,500.999298 2000.999268,1000.998596 2000.999634,1500.999023 
	C1952.166626,1501.000000 1903.333374,1501.000000 1854.000000,1501.000000 
M668.937378,803.437134 
	C682.585999,774.362122 684.997498,743.843811 679.643066,712.642883 
	C673.691040,677.959839 654.885376,652.464783 622.856018,637.305664 
	C599.688232,626.340637 574.788696,622.040344 549.599792,618.992004 
	C546.441467,618.609741 544.911194,620.099121 544.151733,622.794617 
	C543.250488,625.993591 542.412842,629.214050 541.668762,632.453003 
	C540.818115,636.155762 538.986084,638.213013 534.947632,639.338074 
	C508.050659,646.830933 485.125580,660.803711 468.130493,683.215271 
	C442.854218,716.547363 435.927948,754.375000 443.800964,794.810181 
	C450.278870,828.080383 467.781830,854.093811 498.826263,869.604126 
	C518.608948,879.487854 539.759949,880.856079 561.245728,878.082397 
	C609.633057,871.835815 646.311646,848.346863 668.937378,803.437134 
M720.751160,854.103516 
	C720.315735,860.916382 719.725830,867.723877 719.490234,874.543640 
	C719.273621,880.814392 721.955566,882.900940 728.177551,881.681702 
	C729.640076,881.395081 731.086487,880.958984 732.491028,880.454346 
	C747.658020,875.004456 762.766907,869.386780 778.007812,864.153198 
	C781.965271,862.794250 783.564392,860.524597 783.889832,856.629700 
	C785.567383,836.550598 787.308777,816.476685 789.062805,796.404053 
	C789.804321,787.917969 790.631348,779.439453 791.419434,770.957458 
	C793.068542,772.351746 793.856567,773.781738 794.555359,775.254028 
	C809.806946,807.386536 825.053894,839.521423 840.289429,871.661560 
	C845.432922,882.512024 850.480103,884.111572 861.320496,878.608215 
	C869.912964,874.246155 878.612122,870.091675 887.305481,865.931580 
	C896.898193,861.341125 906.601135,856.974854 916.105957,852.211426 
	C918.067871,851.228210 919.368469,848.925720 920.973816,847.231201 
	C919.006042,846.685120 917.058838,846.039673 915.063599,845.626038 
	C913.605225,845.323730 912.084351,845.223633 910.590027,845.211975 
	C905.096863,845.169067 901.275269,842.736938 898.446960,837.944702 
	C890.839783,825.054871 882.815247,812.411133 875.228394,799.509705 
	C867.659790,786.639404 860.421082,773.575073 853.475586,761.365479 
	C862.820312,755.197632 872.433411,749.786682 880.976685,743.024048 
	C900.181091,727.822632 909.549988,708.141113 904.678040,683.313354 
	C899.960205,659.271362 883.496582,645.947815 861.152161,640.215515 
	C846.944763,636.570618 831.999329,634.668823 817.318787,634.238403 
	C786.906738,633.346863 756.897095,637.825745 727.269470,644.604919 
	C725.329712,645.048706 723.118347,646.692749 722.103027,648.410767 
	C714.234619,661.724915 706.621155,675.190063 698.958679,688.625488 
	C698.341858,689.707031 697.948303,690.915955 696.949707,693.224426 
	C709.710754,693.707275 721.018982,689.250977 733.074585,688.446106 
	C728.972473,743.645447 724.902344,798.414673 720.751160,854.103516 
M1236.274048,846.833923 
	C1237.212280,844.346802 1238.293945,841.902344 1239.050171,839.361023 
	C1239.866089,836.618652 1241.166382,835.551147 1244.325562,835.595581 
	C1261.145264,835.832214 1277.970093,835.703552 1294.792725,835.760986 
	C1298.452881,835.773499 1302.191650,835.630310 1305.740112,836.335022 
	C1307.649048,836.714050 1310.199707,838.393494 1310.802856,840.079285 
	C1314.716064,851.017456 1318.171753,862.119202 1321.780396,873.166321 
	C1324.634888,881.904663 1325.506714,882.551270 1334.223022,879.737366 
	C1352.245605,873.919006 1370.187622,867.850647 1388.145996,861.834961 
	C1389.319458,861.441833 1390.350342,860.622925 1391.303223,860.083740 
	C1388.849976,855.105591 1386.098999,850.694580 1384.421021,845.907349 
	C1378.431885,828.819275 1372.792969,811.608276 1367.047485,794.435059 
	C1349.762329,742.769226 1335.328003,690.132629 1314.284058,639.745361 
	C1311.665039,633.474121 1309.493530,631.264954 1302.588135,632.662842 
	C1289.925049,635.226135 1277.344482,638.383545 1264.985352,642.135803 
	C1261.678711,643.139709 1258.212402,646.684448 1256.686157,649.938232 
	C1250.975708,662.112854 1245.731323,674.531250 1240.873657,687.075562 
	C1228.817139,718.209717 1216.978760,749.429688 1205.313965,780.712585 
	C1203.871460,784.581482 1201.942383,785.693970 1198.116699,785.654480 
	C1190.625732,785.577026 1183.128296,785.883667 1175.638062,786.153870 
	C1173.582275,786.228027 1171.542236,786.737305 1169.531738,787.041321 
	C1169.531738,788.314392 1169.466675,788.976929 1169.541260,789.623291 
	C1171.033081,802.562561 1177.209229,813.585388 1184.011597,824.285461 
	C1185.624512,826.822754 1185.846802,828.802856 1184.698608,831.554810 
	C1180.882812,840.699219 1177.351685,849.962463 1173.646362,859.344910 
	C1187.058594,867.944702 1201.114136,874.607666 1215.789429,880.096436 
	C1220.056396,881.692383 1222.324341,880.554688 1223.952271,876.556946 
	C1227.899658,866.863892 1231.995361,857.231140 1236.274048,846.833923 
M1647.458496,877.966431 
	C1663.775513,878.337341 1680.091675,878.758606 1696.410034,879.053650 
	C1702.688843,879.167236 1707.609497,876.663086 1710.994263,871.130981 
	C1717.157349,861.057983 1723.638184,851.176880 1729.664062,841.024353 
	C1731.281616,838.298889 1731.734863,834.882507 1733.005249,830.897095 
	C1704.281006,830.897095 1677.060181,830.897095 1649.537476,830.897095 
	C1651.073608,814.325623 1652.559692,798.294312 1654.158691,781.044922 
	C1665.082397,781.044922 1675.715454,781.254639 1686.328735,780.887390 
	C1688.772095,780.802856 1692.458740,779.357666 1693.342651,777.485596 
	C1699.579102,764.274597 1705.452759,750.877991 1710.961914,737.345093 
	C1713.070923,732.164490 1710.994629,729.792480 1705.411133,729.881531 
	C1697.418213,730.009033 1689.430542,730.458008 1681.437622,730.596008 
	C1674.034912,730.723816 1666.628296,730.623230 1659.201782,730.623230 
	C1660.540527,717.056396 1661.878418,703.498413 1663.245850,689.640930 
	C1665.798340,689.467773 1668.101929,689.255188 1670.410400,689.163818 
	C1688.552979,688.445923 1706.695068,687.710327 1724.840942,687.082947 
	C1728.597900,686.953064 1731.852539,686.218323 1733.333496,682.323120 
	C1738.584229,668.511536 1743.918213,654.728821 1748.923950,640.828308 
	C1750.601562,636.169617 1748.598999,633.825745 1743.615723,634.064514 
	C1736.797729,634.391235 1729.999146,635.100281 1723.184570,635.521851 
	C1699.588989,636.981750 1676.005005,638.759827 1652.387817,639.688538 
	C1635.752930,640.342651 1619.070557,639.901367 1602.411499,639.737122 
	C1599.342041,639.706909 1597.652832,640.660889 1596.136353,643.302734 
	C1591.335205,651.667297 1586.244507,659.865540 1581.274048,668.133118 
	C1577.847412,673.832886 1574.419922,679.532349 1571.021484,685.248840 
	C1569.018921,688.617432 1570.282837,690.648621 1573.837158,691.406860 
	C1575.772461,691.819763 1577.788940,691.985596 1579.772339,692.014343 
	C1585.229858,692.093628 1590.689087,692.041748 1596.468018,692.041748 
	C1595.250977,709.271606 1594.067749,726.026001 1592.883789,742.780396 
	C1592.836914,743.445068 1592.953491,744.182007 1592.704102,744.760315 
	C1591.993896,746.406311 1591.328003,748.125854 1590.300049,749.571350 
	C1584.512207,757.709900 1578.494995,765.687683 1572.815063,773.899536 
	C1569.244995,779.061096 1570.419067,781.306702 1576.616943,781.992981 
	C1580.991211,782.477295 1585.380249,782.828674 1589.655029,783.229309 
	C1589.045532,792.187012 1588.391602,800.653015 1587.906982,809.128723 
	C1586.302002,837.198486 1586.325928,837.200012 1571.885376,861.191162 
	C1571.370605,862.046387 1570.813110,862.875916 1570.305542,863.735168 
	C1566.618774,869.976013 1567.597046,872.196228 1574.738037,872.738464 
	C1598.648560,874.554260 1622.570923,876.215942 1647.458496,877.966431 
M1141.816406,702.674377 
	C1143.388794,704.163208 1144.773926,705.962402 1146.584839,707.056335 
	C1148.506958,708.217346 1150.833374,708.708984 1152.983276,709.492920 
	C1153.656738,707.436157 1154.969604,705.357605 1154.900391,703.326111 
	C1154.413086,689.010925 1153.008545,674.697876 1153.180176,660.399475 
	C1153.297485,650.614990 1149.189087,645.134521 1140.533936,642.092224 
	C1139.750977,641.816956 1139.016968,641.399475 1138.230713,641.135864 
	C1103.536011,629.504089 1070.516724,633.181030 1039.900513,653.191650 
	C1023.726257,663.763000 1013.451965,678.960083 1011.569763,698.670898 
	C1010.894836,705.738892 1011.584412,712.965088 1011.974731,720.101379 
	C1012.881409,736.679138 1019.517212,750.643677 1031.886475,761.728333 
	C1037.463379,766.726013 1043.306030,771.434753 1049.136597,776.139893 
	C1058.336060,783.563660 1067.608398,790.897583 1076.887085,798.222473 
	C1082.039673,802.290039 1085.424072,807.284729 1084.343506,814.088257 
	C1083.261475,820.900513 1077.618408,823.177673 1071.998413,824.994385 
	C1063.533813,827.730652 1054.936523,827.388000 1046.351318,825.414612 
	C1035.353271,822.886658 1026.169434,817.099182 1017.728210,809.824524 
	C1016.414307,808.692261 1014.185669,808.621460 1012.380005,808.059814 
	C1011.948303,809.710327 1011.087463,811.377869 1011.152222,813.008667 
	C1011.713684,827.155640 1012.500000,841.293579 1013.103577,855.439087 
	C1013.727112,870.052856 1014.302612,870.781494 1028.491821,875.061401 
	C1042.922607,879.414185 1057.770996,879.444763 1072.573120,879.052002 
	C1099.675659,878.332825 1122.745728,867.862610 1141.179688,848.099121 
	C1165.524170,821.998779 1165.801514,784.989136 1141.941162,759.119141 
	C1136.353760,753.061157 1129.633179,747.908997 1122.909546,743.068359 
	C1110.623169,734.222656 1097.931152,725.941162 1085.435913,717.384033 
	C1078.253906,712.465576 1078.092896,705.043091 1079.122192,697.639526 
	C1080.019409,691.187500 1084.631470,687.253601 1090.716431,686.018188 
	C1096.345337,684.875244 1102.277344,684.149658 1107.967651,684.601746 
	C1121.435547,685.671936 1131.743530,693.363831 1141.816406,702.674377 
M350.049866,690.632935 
	C351.600250,690.086243 353.129303,689.136780 354.704224,689.053406 
	C376.657562,687.890137 398.615356,686.806702 420.576630,685.802856 
	C425.239899,685.589783 428.908661,684.444519 430.749847,679.512329 
	C435.513641,666.750793 440.579193,654.102173 445.391510,641.358337 
	C447.356323,636.155029 445.600403,633.793884 439.986298,633.960754 
	C431.662872,634.208191 423.346283,634.676697 415.024567,634.992981 
	C371.750397,636.637512 328.474884,638.247192 285.203827,639.969421 
	C283.796173,640.025513 281.806976,640.777710 281.141541,641.855408 
	C272.404327,656.005920 263.772858,670.223877 255.310791,684.540771 
	C252.639069,689.060974 253.905518,691.180542 259.156982,691.887451 
	C260.965424,692.130920 262.813934,692.135742 264.644623,692.143860 
	C271.086945,692.172363 277.529480,692.154968 284.359131,692.154968 
	C283.371277,706.487488 282.458313,720.421265 281.385223,734.342712 
	C281.265076,735.901245 280.460602,737.532593 279.595123,738.888611 
	C271.451447,751.648438 263.259674,764.377869 255.009003,777.068726 
	C250.744263,783.628601 251.845230,786.028442 259.729218,786.842285 
	C261.217773,786.995972 262.722992,787.032715 264.221008,787.041687 
	C268.474152,787.067322 272.727509,787.050659 277.488312,787.050659 
	C276.449615,799.104126 275.358551,810.188782 274.568573,821.294739 
	C273.316528,838.895996 272.146271,856.505005 271.197205,874.124573 
	C270.879150,880.029236 273.005005,881.932678 278.901764,882.015686 
	C280.868378,882.043457 282.974152,881.930969 284.791626,881.267334 
	C299.130066,876.031433 313.357880,870.488281 327.742462,865.385803 
	C333.466461,863.355286 335.606049,859.740051 335.941986,853.866760 
	C336.759583,839.573242 338.027496,825.304688 339.177521,811.031189 
	C339.827667,802.961487 340.603241,794.901917 341.331451,786.735474 
	C343.453369,786.631714 345.108368,786.505310 346.765015,786.477051 
	C360.255127,786.247437 373.745667,786.041870 387.235840,785.815796 
	C391.388245,785.746277 395.136200,785.147766 396.970825,780.523987 
	C402.299988,767.093201 407.965485,753.793213 413.130188,740.300720 
	C415.876007,733.127563 413.977448,730.818604 406.272247,731.062866 
	C388.126831,731.638062 369.984894,732.323059 351.841003,732.947754 
	C350.107330,733.007446 348.369812,732.955750 346.322357,732.955750 
	C347.572845,718.689392 348.763489,705.106323 350.049866,690.632935 
M1399.777954,873.210815 
	C1397.787842,878.174011 1400.770874,879.169434 1404.658569,879.063843 
	C1444.778931,877.974426 1484.899658,876.886292 1525.016113,875.659729 
	C1534.761841,875.361816 1541.086182,870.213318 1544.177368,860.939209 
	C1547.854004,849.908447 1551.729370,838.943970 1555.403809,827.912476 
	C1557.185547,822.563110 1555.830444,820.555115 1550.349854,820.825684 
	C1543.539062,821.161926 1536.744751,821.892273 1529.953857,822.559021 
	C1512.440552,824.278564 1494.933105,826.056763 1476.941162,827.859924 
	C1477.385132,821.747498 1477.725098,815.968201 1478.235962,810.203979 
	C1483.246094,753.660828 1488.285034,697.120239 1493.314087,640.578796 
	C1493.941895,633.520813 1492.775269,632.398132 1486.007935,633.971069 
	C1468.846680,637.960083 1451.709961,642.055115 1434.554443,646.068665 
	C1425.557007,648.173523 1425.476196,648.259949 1424.931641,657.575195 
	C1423.852783,676.029236 1422.942505,694.496155 1421.594604,712.930847 
	C1418.826172,750.792358 1415.631226,788.623413 1413.007935,826.494446 
	C1412.137573,839.059875 1410.727905,851.227234 1404.044434,862.292603 
	C1402.183716,865.373291 1401.294556,869.040649 1399.777954,873.210815 
z"/>
<path fill="#0124FF" opacity="1.000000" stroke="none" 
	d="
M668.780762,803.780273 
	C646.311646,848.346863 609.633057,871.835815 561.245728,878.082397 
	C539.759949,880.856079 518.608948,879.487854 498.826263,869.604126 
	C467.781830,854.093811 450.278870,828.080383 443.800964,794.810181 
	C435.927948,754.375000 442.854218,716.547363 468.130493,683.215271 
	C485.125580,660.803711 508.050659,646.830933 534.947632,639.338074 
	C538.986084,638.213013 540.818115,636.155762 541.668762,632.453003 
	C542.412842,629.214050 543.250488,625.993591 544.151733,622.794617 
	C544.911194,620.099121 546.441467,618.609741 549.599792,618.992004 
	C574.788696,622.040344 599.688232,626.340637 622.856018,637.305664 
	C654.885376,652.464783 673.691040,677.959839 679.643066,712.642883 
	C684.997498,743.843811 682.585999,774.362122 668.780762,803.780273 
M610.631958,723.017090 
	C605.601318,707.691467 596.562134,695.771851 581.031982,690.090576 
	C560.531738,682.591187 539.150757,690.576416 526.821106,710.617676 
	C511.443054,735.613708 507.881622,762.557678 516.090576,790.718262 
	C520.629272,806.288452 529.624329,818.628479 545.750549,823.976501 
	C569.170410,831.743347 594.117188,820.385132 604.691040,796.534302 
	C615.058228,773.149719 616.902344,748.719177 610.631958,723.017090 
z"/>
<path fill="#0124FF" opacity="1.000000" stroke="none" 
	d="
M720.791687,853.643677 
	C724.902344,798.414673 728.972473,743.645447 733.074585,688.446106 
	C721.018982,689.250977 709.710754,693.707275 696.949707,693.224426 
	C697.948303,690.915955 698.341858,689.707031 698.958679,688.625488 
	C706.621155,675.190063 714.234619,661.724915 722.103027,648.410767 
	C723.118347,646.692749 725.329712,645.048706 727.269470,644.604919 
	C756.897095,637.825745 786.906738,633.346863 817.318787,634.238403 
	C831.999329,634.668823 846.944763,636.570618 861.152161,640.215515 
	C883.496582,645.947815 899.960205,659.271362 904.678040,683.313354 
	C909.549988,708.141113 900.181091,727.822632 880.976685,743.024048 
	C872.433411,749.786682 862.820312,755.197632 853.475586,761.365479 
	C860.421082,773.575073 867.659790,786.639404 875.228394,799.509705 
	C882.815247,812.411133 890.839783,825.054871 898.446960,837.944702 
	C901.275269,842.736938 905.096863,845.169067 910.590027,845.211975 
	C912.084351,845.223633 913.605225,845.323730 915.063599,845.626038 
	C917.058838,846.039673 919.006042,846.685120 920.973816,847.231201 
	C919.368469,848.925720 918.067871,851.228210 916.105957,852.211426 
	C906.601135,856.974854 896.898193,861.341125 887.305481,865.931580 
	C878.612122,870.091675 869.912964,874.246155 861.320496,878.608215 
	C850.480103,884.111572 845.432922,882.512024 840.289429,871.661560 
	C825.053894,839.521423 809.806946,807.386536 794.555359,775.254028 
	C793.856567,773.781738 793.068542,772.351746 791.419434,770.957458 
	C790.631348,779.439453 789.804321,787.917969 789.062805,796.404053 
	C787.308777,816.476685 785.567383,836.550598 783.889832,856.629700 
	C783.564392,860.524597 781.965271,862.794250 778.007812,864.153198 
	C762.766907,869.386780 747.658020,875.004456 732.491028,880.454346 
	C731.086487,880.958984 729.640076,881.395081 728.177551,881.681702 
	C721.955566,882.900940 719.273621,880.814392 719.490234,874.543640 
	C719.725830,867.723877 720.315735,860.916382 720.791687,853.643677 
M816.228394,741.799683 
	C828.951843,733.689392 839.022705,723.399902 842.516418,708.183777 
	C846.004150,692.994080 838.853760,681.878296 823.524414,679.658142 
	C815.955261,678.561951 808.096008,679.467834 800.005798,679.467834 
	C797.776245,703.367004 795.670044,725.944824 793.528198,748.904663 
	C802.017639,748.886414 808.922607,745.931580 816.228394,741.799683 
z"/>
<path fill="#0124FF" opacity="1.000000" stroke="none" 
	d="
M1236.152588,847.203979 
	C1231.995361,857.231140 1227.899658,866.863892 1223.952271,876.556946 
	C1222.324341,880.554688 1220.056396,881.692383 1215.789429,880.096436 
	C1201.114136,874.607666 1187.058594,867.944702 1173.646362,859.344910 
	C1177.351685,849.962463 1180.882812,840.699219 1184.698608,831.554810 
	C1185.846802,828.802856 1185.624512,826.822754 1184.011597,824.285461 
	C1177.209229,813.585388 1171.033081,802.562561 1169.541260,789.623291 
	C1169.466675,788.976929 1169.531738,788.314392 1169.531738,787.041321 
	C1171.542236,786.737305 1173.582275,786.228027 1175.638062,786.153870 
	C1183.128296,785.883667 1190.625732,785.577026 1198.116699,785.654480 
	C1201.942383,785.693970 1203.871460,784.581482 1205.313965,780.712585 
	C1216.978760,749.429688 1228.817139,718.209717 1240.873657,687.075562 
	C1245.731323,674.531250 1250.975708,662.112854 1256.686157,649.938232 
	C1258.212402,646.684448 1261.678711,643.139709 1264.985352,642.135803 
	C1277.344482,638.383545 1289.925049,635.226135 1302.588135,632.662842 
	C1309.493530,631.264954 1311.665039,633.474121 1314.284058,639.745361 
	C1335.328003,690.132629 1349.762329,742.769226 1367.047485,794.435059 
	C1372.792969,811.608276 1378.431885,828.819275 1384.421021,845.907349 
	C1386.098999,850.694580 1388.849976,855.105591 1391.303223,860.083740 
	C1390.350342,860.622925 1389.319458,861.441833 1388.145996,861.834961 
	C1370.187622,867.850647 1352.245605,873.919006 1334.223022,879.737366 
	C1325.506714,882.551270 1324.634888,881.904663 1321.780396,873.166321 
	C1318.171753,862.119202 1314.716064,851.017456 1310.802856,840.079285 
	C1310.199707,838.393494 1307.649048,836.714050 1305.740112,836.335022 
	C1302.191650,835.630310 1298.452881,835.773499 1294.792725,835.760986 
	C1277.970093,835.703552 1261.145264,835.832214 1244.325562,835.595581 
	C1241.166382,835.551147 1239.866089,836.618652 1239.050171,839.361023 
	C1238.293945,841.902344 1237.212280,844.346802 1236.152588,847.203979 
M1296.795166,787.560547 
	C1291.563477,763.728882 1286.331665,739.897217 1281.403198,717.447205 
	C1273.974243,740.034363 1266.089111,764.008789 1258.078979,788.363098 
	C1271.657837,788.363098 1284.089966,788.363098 1296.795166,787.560547 
z"/>
<path fill="#0124FF" opacity="1.000000" stroke="none" 
	d="
M1646.973633,877.951538 
	C1622.570923,876.215942 1598.648560,874.554260 1574.738037,872.738464 
	C1567.597046,872.196228 1566.618774,869.976013 1570.305542,863.735168 
	C1570.813110,862.875916 1571.370605,862.046387 1571.885376,861.191162 
	C1586.325928,837.200012 1586.302002,837.198486 1587.906982,809.128723 
	C1588.391602,800.653015 1589.045532,792.187012 1589.655029,783.229309 
	C1585.380249,782.828674 1580.991211,782.477295 1576.616943,781.992981 
	C1570.419067,781.306702 1569.244995,779.061096 1572.815063,773.899536 
	C1578.494995,765.687683 1584.512207,757.709900 1590.300049,749.571350 
	C1591.328003,748.125854 1591.993896,746.406311 1592.704102,744.760315 
	C1592.953491,744.182007 1592.836914,743.445068 1592.883789,742.780396 
	C1594.067749,726.026001 1595.250977,709.271606 1596.468018,692.041748 
	C1590.689087,692.041748 1585.229858,692.093628 1579.772339,692.014343 
	C1577.788940,691.985596 1575.772461,691.819763 1573.837158,691.406860 
	C1570.282837,690.648621 1569.018921,688.617432 1571.021484,685.248840 
	C1574.419922,679.532349 1577.847412,673.832886 1581.274048,668.133118 
	C1586.244507,659.865540 1591.335205,651.667297 1596.136353,643.302734 
	C1597.652832,640.660889 1599.342041,639.706909 1602.411499,639.737122 
	C1619.070557,639.901367 1635.752930,640.342651 1652.387817,639.688538 
	C1676.005005,638.759827 1699.588989,636.981750 1723.184570,635.521851 
	C1729.999146,635.100281 1736.797729,634.391235 1743.615723,634.064514 
	C1748.598999,633.825745 1750.601562,636.169617 1748.923950,640.828308 
	C1743.918213,654.728821 1738.584229,668.511536 1733.333496,682.323120 
	C1731.852539,686.218323 1728.597900,686.953064 1724.840942,687.082947 
	C1706.695068,687.710327 1688.552979,688.445923 1670.410400,689.163818 
	C1668.101929,689.255188 1665.798340,689.467773 1663.245850,689.640930 
	C1661.878418,703.498413 1660.540527,717.056396 1659.201782,730.623230 
	C1666.628296,730.623230 1674.034912,730.723816 1681.437622,730.596008 
	C1689.430542,730.458008 1697.418213,730.009033 1705.411133,729.881531 
	C1710.994629,729.792480 1713.070923,732.164490 1710.961914,737.345093 
	C1705.452759,750.877991 1699.579102,764.274597 1693.342651,777.485596 
	C1692.458740,779.357666 1688.772095,780.802856 1686.328735,780.887390 
	C1675.715454,781.254639 1665.082397,781.044922 1654.158691,781.044922 
	C1652.559692,798.294312 1651.073608,814.325623 1649.537476,830.897095 
	C1677.060181,830.897095 1704.281006,830.897095 1733.005249,830.897095 
	C1731.734863,834.882507 1731.281616,838.298889 1729.664062,841.024353 
	C1723.638184,851.176880 1717.157349,861.057983 1710.994263,871.130981 
	C1707.609497,876.663086 1702.688843,879.167236 1696.410034,879.053650 
	C1680.091675,878.758606 1663.775513,878.337341 1646.973633,877.951538 
z"/>
<path fill="#0124FF" opacity="1.000000" stroke="none" 
	d="
M1141.557861,702.432373 
	C1131.743530,693.363831 1121.435547,685.671936 1107.967651,684.601746 
	C1102.277344,684.149658 1096.345337,684.875244 1090.716431,686.018188 
	C1084.631470,687.253601 1080.019409,691.187500 1079.122192,697.639526 
	C1078.092896,705.043091 1078.253906,712.465576 1085.435913,717.384033 
	C1097.931152,725.941162 1110.623169,734.222656 1122.909546,743.068359 
	C1129.633179,747.908997 1136.353760,753.061157 1141.941162,759.119141 
	C1165.801514,784.989136 1165.524170,821.998779 1141.179688,848.099121 
	C1122.745728,867.862610 1099.675659,878.332825 1072.573120,879.052002 
	C1057.770996,879.444763 1042.922607,879.414185 1028.491821,875.061401 
	C1014.302612,870.781494 1013.727112,870.052856 1013.103577,855.439087 
	C1012.500000,841.293579 1011.713684,827.155640 1011.152222,813.008667 
	C1011.087463,811.377869 1011.948303,809.710327 1012.380005,808.059814 
	C1014.185669,808.621460 1016.414307,808.692261 1017.728210,809.824524 
	C1026.169434,817.099182 1035.353271,822.886658 1046.351318,825.414612 
	C1054.936523,827.388000 1063.533813,827.730652 1071.998413,824.994385 
	C1077.618408,823.177673 1083.261475,820.900513 1084.343506,814.088257 
	C1085.424072,807.284729 1082.039673,802.290039 1076.887085,798.222473 
	C1067.608398,790.897583 1058.336060,783.563660 1049.136597,776.139893 
	C1043.306030,771.434753 1037.463379,766.726013 1031.886475,761.728333 
	C1019.517212,750.643677 1012.881409,736.679138 1011.974731,720.101379 
	C1011.584412,712.965088 1010.894836,705.738892 1011.569763,698.670898 
	C1013.451965,678.960083 1023.726257,663.763000 1039.900513,653.191650 
	C1070.516724,633.181030 1103.536011,629.504089 1138.230713,641.135864 
	C1139.016968,641.399475 1139.750977,641.816956 1140.533936,642.092224 
	C1149.189087,645.134521 1153.297485,650.614990 1153.180176,660.399475 
	C1153.008545,674.697876 1154.413086,689.010925 1154.900391,703.326111 
	C1154.969604,705.357605 1153.656738,707.436157 1152.983276,709.492920 
	C1150.833374,708.708984 1148.506958,708.217346 1146.584839,707.056335 
	C1144.773926,705.962402 1143.388794,704.163208 1141.557861,702.432373 
z"/>
<path fill="#0124FF" opacity="1.000000" stroke="none" 
	d="
M350.001984,691.078125 
	C348.763489,705.106323 347.572845,718.689392 346.322357,732.955750 
	C348.369812,732.955750 350.107330,733.007446 351.841003,732.947754 
	C369.984894,732.323059 388.126831,731.638062 406.272247,731.062866 
	C413.977448,730.818604 415.876007,733.127563 413.130188,740.300720 
	C407.965485,753.793213 402.299988,767.093201 396.970825,780.523987 
	C395.136200,785.147766 391.388245,785.746277 387.235840,785.815796 
	C373.745667,786.041870 360.255127,786.247437 346.765015,786.477051 
	C345.108368,786.505310 343.453369,786.631714 341.331451,786.735474 
	C340.603241,794.901917 339.827667,802.961487 339.177521,811.031189 
	C338.027496,825.304688 336.759583,839.573242 335.941986,853.866760 
	C335.606049,859.740051 333.466461,863.355286 327.742462,865.385803 
	C313.357880,870.488281 299.130066,876.031433 284.791626,881.267334 
	C282.974152,881.930969 280.868378,882.043457 278.901764,882.015686 
	C273.005005,881.932678 270.879150,880.029236 271.197205,874.124573 
	C272.146271,856.505005 273.316528,838.895996 274.568573,821.294739 
	C275.358551,810.188782 276.449615,799.104126 277.488312,787.050659 
	C272.727509,787.050659 268.474152,787.067322 264.221008,787.041687 
	C262.722992,787.032715 261.217773,786.995972 259.729218,786.842285 
	C251.845230,786.028442 250.744263,783.628601 255.009003,777.068726 
	C263.259674,764.377869 271.451447,751.648438 279.595123,738.888611 
	C280.460602,737.532593 281.265076,735.901245 281.385223,734.342712 
	C282.458313,720.421265 283.371277,706.487488 284.359131,692.154968 
	C277.529480,692.154968 271.086945,692.172363 264.644623,692.143860 
	C262.813934,692.135742 260.965424,692.130920 259.156982,691.887451 
	C253.905518,691.180542 252.639069,689.060974 255.310791,684.540771 
	C263.772858,670.223877 272.404327,656.005920 281.141541,641.855408 
	C281.806976,640.777710 283.796173,640.025513 285.203827,639.969421 
	C328.474884,638.247192 371.750397,636.637512 415.024567,634.992981 
	C423.346283,634.676697 431.662872,634.208191 439.986298,633.960754 
	C445.600403,633.793884 447.356323,636.155029 445.391510,641.358337 
	C440.579193,654.102173 435.513641,666.750793 430.749847,679.512329 
	C428.908661,684.444519 425.239899,685.589783 420.576630,685.802856 
	C398.615356,686.806702 376.657562,687.890137 354.704224,689.053406 
	C353.129303,689.136780 351.600250,690.086243 350.001984,691.078125 
z"/>
<path fill="#0124FF" opacity="1.000000" stroke="none" 
	d="
M1399.868774,872.824829 
	C1401.294556,869.040649 1402.183716,865.373291 1404.044434,862.292603 
	C1410.727905,851.227234 1412.137573,839.059875 1413.007935,826.494446 
	C1415.631226,788.623413 1418.826172,750.792358 1421.594604,712.930847 
	C1422.942505,694.496155 1423.852783,676.029236 1424.931641,657.575195 
	C1425.476196,648.259949 1425.557007,648.173523 1434.554443,646.068665 
	C1451.709961,642.055115 1468.846680,637.960083 1486.007935,633.971069 
	C1492.775269,632.398132 1493.941895,633.520813 1493.314087,640.578796 
	C1488.285034,697.120239 1483.246094,753.660828 1478.235962,810.203979 
	C1477.725098,815.968201 1477.385132,821.747498 1476.941162,827.859924 
	C1494.933105,826.056763 1512.440552,824.278564 1529.953857,822.559021 
	C1536.744751,821.892273 1543.539062,821.161926 1550.349854,820.825684 
	C1555.830444,820.555115 1557.185547,822.563110 1555.403809,827.912476 
	C1551.729370,838.943970 1547.854004,849.908447 1544.177368,860.939209 
	C1541.086182,870.213318 1534.761841,875.361816 1525.016113,875.659729 
	C1484.899658,876.886292 1444.778931,877.974426 1404.658569,879.063843 
	C1400.770874,879.169434 1397.787842,878.174011 1399.868774,872.824829 
z"/>
<path fill="#FEFEFF" opacity="1.000000" stroke="none" 
	d="
M610.759583,723.397827 
	C616.902344,748.719177 615.058228,773.149719 604.691040,796.534302 
	C594.117188,820.385132 569.170410,831.743347 545.750549,823.976501 
	C529.624329,818.628479 520.629272,806.288452 516.090576,790.718262 
	C507.881622,762.557678 511.443054,735.613708 526.821106,710.617676 
	C539.150757,690.576416 560.531738,682.591187 581.031982,690.090576 
	C596.562134,695.771851 605.601318,707.691467 610.759583,723.397827 
z"/>
<path fill="#FEFEFF" opacity="1.000000" stroke="none" 
	d="
M815.900879,741.965454 
	C808.922607,745.931580 802.017639,748.886414 793.528198,748.904663 
	C795.670044,725.944824 797.776245,703.367004 800.005798,679.467834 
	C808.096008,679.467834 815.955261,678.561951 823.524414,679.658142 
	C838.853760,681.878296 846.004150,692.994080 842.516418,708.183777 
	C839.022705,723.399902 828.951843,733.689392 815.900879,741.965454 
z"/>
<path fill="#F9FAFF" opacity="1.000000" stroke="none" 
	d="
M1296.658691,787.961792 
	C1284.089966,788.363098 1271.657837,788.363098 1258.078979,788.363098 
	C1266.089111,764.008789 1273.974243,740.034363 1281.403198,717.447205 
	C1286.331665,739.897217 1291.563477,763.728882 1296.658691,787.961792 
z"/>
</svg>