<svg version="1.1" id="Layer_1" xmlns="http://www.w3.org/2000/svg" xmlns:xlink="http://www.w3.org/1999/xlink" x="0px" y="0px"
	 width="100%" viewBox="0 0 1000 750" enable-background="new 0 0 1000 750" xml:space="preserve">
<path fill="#FFFFFF" opacity="1.000000" stroke="none" 
	d="
M612.000000,751.000000 
	C408.000000,751.000000 204.500000,751.000000 1.000000,751.000000 
	C1.000000,501.000000 1.000000,251.000000 1.000000,1.000000 
	C334.333344,1.000000 667.666687,1.000000 1001.000000,1.000000 
	C1001.000000,251.000000 1001.000000,501.000000 1001.000000,751.000000 
	C871.500000,751.000000 742.000000,751.000000 612.000000,751.000000 
M230.019592,444.580139 
	C250.047623,449.703827 269.088470,446.593658 286.915314,436.755402 
	C313.827698,421.902924 327.770172,391.341705 323.585785,359.554749 
	C320.273956,334.396698 307.178833,317.436096 283.190552,309.537384 
	C273.783325,306.439819 263.770599,305.202179 254.064743,302.981445 
	C249.620575,301.964600 247.116577,303.202911 246.684448,308.018646 
	C246.349075,311.756317 244.142273,313.496277 240.412766,314.539185 
	C229.511581,317.587463 219.781723,323.054810 211.791687,331.108521 
	C192.948669,350.101776 187.117203,373.266754 191.804504,399.037354 
	C195.770676,420.843201 207.638367,436.777985 230.019592,444.580139 
M448.321838,434.811371 
	C451.145203,433.188416 453.968567,431.565491 456.791931,429.942566 
	C456.618256,429.484955 456.444580,429.027344 456.270905,428.569733 
	C454.666168,428.393860 452.907837,428.574707 451.490234,427.964264 
	C448.915527,426.855560 445.560150,425.892029 444.245972,423.793579 
	C435.525391,409.869049 427.260223,395.659271 418.764191,381.403503 
	C419.647156,380.795349 420.138855,380.351288 420.711945,380.077789 
	C428.775970,376.229218 436.002747,371.262299 441.557983,364.161560 
	C453.800629,348.512970 449.033478,326.342499 431.341583,317.410217 
	C427.385132,315.412659 423.022369,313.911469 418.674622,313.048737 
	C395.295685,308.409668 372.281952,311.850555 349.376404,316.728363 
	C348.471558,316.921082 347.260712,317.296387 346.857666,317.979248 
	C341.995331,326.217529 337.258423,334.529846 332.488831,342.822876 
	C332.737793,343.242828 332.986755,343.662811 333.235718,344.082794 
	C339.444427,343.094421 345.653137,342.106049 352.327667,341.043549 
	C351.689362,349.984741 351.102509,358.418091 350.482574,366.849030 
	C348.650726,391.761078 346.717712,416.666138 345.021637,441.587402 
	C344.534790,448.740936 346.104492,449.638214 353.140350,447.149017 
	C360.345734,444.599823 367.438354,441.671844 374.765747,439.549866 
	C379.306152,438.234985 380.632355,435.669647 380.931580,431.347198 
	C381.839935,418.224731 383.049744,405.122894 384.181641,392.016449 
	C384.308746,390.544403 384.688477,389.094177 385.137299,386.598022 
	C386.423340,389.201538 387.170807,390.663177 387.873840,392.145935 
	C395.635376,408.515442 403.380341,424.892761 411.150604,441.258148 
	C414.864624,449.080475 417.065491,449.743317 424.657257,445.983002 
	C432.249878,442.222198 439.959930,438.698456 448.321838,434.811371 
M638.705017,329.149963 
	C630.799255,349.588928 622.802124,369.993439 615.074707,390.499603 
	C613.731934,394.062897 611.959167,395.366730 608.208923,395.076721 
	C603.798828,394.735687 599.342102,394.996796 594.548645,394.996796 
	C594.690308,403.134277 597.961670,409.082458 601.583008,414.814301 
	C603.165039,417.318420 603.505981,419.373840 602.215637,422.143982 
	C600.199463,426.472382 598.682800,431.033478 596.570435,436.487762 
	C604.084778,439.978424 611.591309,443.383789 619.018311,446.954468 
	C622.141907,448.456207 623.852051,447.722839 625.094116,444.481262 
	C627.469971,438.281006 630.016846,432.138672 632.752747,426.089905 
	C633.358765,424.750031 635.026672,422.988678 636.236145,422.964722 
	C646.885803,422.753815 657.542419,422.910919 668.196960,422.914337 
	C671.023926,422.915253 672.661804,423.834595 673.472473,426.914520 
	C674.905884,432.360229 677.276245,437.564148 678.633240,443.023651 
	C679.854858,447.938202 682.330627,448.533020 686.624817,447.020264 
	C696.177979,443.654694 705.823425,440.551483 715.420105,437.308380 
	C716.123962,437.070465 716.738098,436.567169 717.168518,436.317841 
	C715.652954,432.574585 714.123901,429.277588 712.962708,425.855743 
	C701.171387,391.107971 689.588196,356.288727 677.616699,321.603394 
	C673.018921,308.282227 672.724731,308.867218 658.612061,311.733612 
	C648.618164,313.763428 641.287231,317.875458 638.705017,329.149963 
M825.530945,343.084290 
	C827.317444,343.084290 829.104004,343.084290 831.336975,343.084290 
	C830.653870,352.158112 830.184570,360.777771 829.252502,369.347107 
	C828.965698,371.983948 827.800781,374.728546 826.362122,376.994812 
	C823.295776,381.825287 819.786926,386.374908 815.778503,391.994171 
	C820.460876,392.751923 823.783386,393.289642 827.042175,393.817017 
	C827.912048,413.201996 825.892822,422.105957 817.166138,437.707245 
	C817.003662,437.997620 816.869629,438.304352 816.698914,438.589508 
	C815.048035,441.347076 815.553955,442.983704 819.019287,443.175629 
	C841.457336,444.418335 863.888367,445.839661 886.340759,446.708344 
	C889.095520,446.814972 892.834045,444.661163 894.605347,442.380890 
	C898.767334,437.022980 902.086426,430.997223 905.574463,425.139252 
	C906.325134,423.878387 906.348572,422.184540 906.846191,420.110107 
	C891.148315,420.110107 876.223816,420.110107 860.770752,420.110107 
	C861.641785,410.801514 862.467957,401.971588 863.350220,392.542572 
	C869.285217,392.542572 874.767639,392.524902 880.249878,392.549561 
	C883.265930,392.563141 885.067993,391.235687 886.238586,388.345032 
	C888.607300,382.495880 891.441284,376.836426 893.868225,371.009155 
	C896.361572,365.022552 895.567749,363.989349 889.229614,364.020386 
	C881.608826,364.057739 873.987732,364.029205 866.167419,364.029205 
	C866.852539,357.112701 867.584167,349.726501 868.347839,342.016602 
	C870.142212,341.828339 871.749084,341.576630 873.364075,341.503937 
	C882.848328,341.076752 892.331909,340.597595 901.821228,340.343170 
	C905.115051,340.254883 906.962097,338.992676 908.074768,335.854309 
	C910.183105,329.907837 912.780640,324.134583 914.878967,318.184967 
	C917.286072,311.359833 916.693909,310.751068 909.524597,311.076050 
	C887.409912,312.078613 865.297363,313.595428 843.176025,313.745667 
	C834.980469,313.801361 829.988647,315.764130 826.750000,323.341095 
	C824.745850,328.029816 821.419250,332.145874 818.779114,336.574310 
	C817.883057,338.077301 817.271118,339.749756 816.058655,342.357056 
	C819.490112,342.655151 822.040771,342.876709 825.530945,343.084290 
M534.752136,315.162506 
	C533.531860,315.688416 532.305420,316.200378 531.092285,316.742279 
	C501.855835,329.802521 497.238525,364.744690 522.082581,385.042694 
	C529.043518,390.729858 536.053162,396.357666 543.068054,401.978241 
	C545.992249,404.321228 548.484070,407.488953 546.889648,410.921661 
	C545.696045,413.491394 542.538086,416.009003 539.750366,416.823486 
	C529.696838,419.760773 520.783203,416.466675 512.687439,410.371002 
	C511.077759,409.158997 509.372528,408.073822 506.789032,406.295197 
	C506.789032,409.000702 506.734619,410.430878 506.798035,411.855865 
	C507.160767,420.007446 507.782776,428.156494 507.829529,436.309143 
	C507.851013,440.058167 509.040222,442.163422 512.601135,443.235291 
	C534.691101,449.884430 555.791443,449.181488 574.362549,433.849609 
	C585.985718,424.253784 591.244141,411.759033 587.991150,396.531921 
	C585.776978,386.167511 579.167725,378.801575 570.802002,372.879303 
	C563.470459,367.689026 556.005493,362.684692 548.542053,357.683990 
	C544.330017,354.861908 543.491333,350.736237 544.287720,346.270721 
	C545.102905,341.699249 548.745544,339.804596 552.918884,339.137726 
	C559.376160,338.105896 565.621216,338.990387 571.063477,342.791321 
	C574.728882,345.351318 578.000610,348.469177 581.536682,351.224091 
	C582.502869,351.976746 583.788025,352.319855 584.926819,352.850922 
	C585.413208,351.560150 586.352417,350.254944 586.311829,348.980957 
	C586.062744,341.160065 585.158813,333.336212 585.338867,325.533356 
	C585.471313,319.793427 582.795959,317.034637 577.993896,315.187012 
	C563.847961,309.744446 549.697998,310.159210 534.752136,315.162506 
M97.927635,416.272125 
	C97.318787,424.569672 96.538330,432.859283 96.153908,441.167206 
	C95.830475,448.157166 97.990845,449.934082 104.794472,447.776917 
	C112.217804,445.423279 119.371880,442.233368 126.716446,439.612946 
	C130.533340,438.251160 131.915634,435.926392 132.152145,431.828491 
	C132.848923,419.754761 134.068970,407.711212 135.136414,395.035736 
	C143.749573,395.035736 151.902237,394.939880 160.050720,395.082794 
	C163.326187,395.140228 165.313736,393.989746 166.507202,390.869812 
	C168.997910,384.358643 171.836807,377.980408 174.314224,371.464478 
	C176.538147,365.615295 175.829407,364.799591 169.756989,364.832764 
	C159.319595,364.889801 148.881668,364.848541 138.026428,364.848541 
	C138.590637,357.543457 139.198425,349.674286 139.826797,341.538788 
	C142.307800,341.374115 144.272797,341.210144 146.241150,341.118652 
	C156.385696,340.647003 166.527573,340.014374 176.677795,339.813324 
	C181.448807,339.718872 184.345581,338.165863 185.825577,333.373230 
	C187.585617,327.673767 190.041992,322.191376 192.138504,316.593140 
	C194.012939,311.587921 193.450806,310.754211 188.027313,310.949951 
	C160.409592,311.946411 132.792801,312.972595 105.180809,314.112640 
	C103.798676,314.169708 101.900543,315.025116 101.199303,316.120941 
	C96.631660,323.259094 92.243134,330.516785 87.974007,337.839111 
	C85.746460,341.659698 86.431107,342.821960 90.887955,343.019012 
	C94.976791,343.199768 99.079910,343.057404 103.452255,343.057404 
	C103.002144,349.313202 102.288239,354.953552 102.283737,360.594482 
	C102.279831,365.484192 100.862350,369.573669 98.076393,373.523499 
	C94.437775,378.682190 91.193291,384.118652 87.771805,389.430817 
	C84.765312,394.098633 85.310081,395.259369 90.924408,395.752228 
	C93.711678,395.996918 96.518112,396.023285 99.558800,396.159302 
	C99.013100,402.780243 98.495087,409.065308 97.927635,416.272125 
M735.394714,336.769592 
	C733.883667,357.863464 732.606628,378.977600 730.780029,400.044128 
	C729.542480,414.317749 730.594055,429.076416 722.741333,442.179138 
	C720.350525,446.168304 723.125916,447.059113 726.555664,446.953064 
	C748.198975,446.283844 769.843506,445.648712 791.485291,444.933258 
	C796.637024,444.762970 800.340088,442.306427 802.075378,437.303131 
	C804.197937,431.182861 806.172974,425.009583 808.398987,418.927765 
	C809.688477,415.404633 808.325623,414.213287 805.009094,414.465240 
	C801.190979,414.755341 797.382507,415.174530 793.570862,415.547333 
	C784.187988,416.465027 774.805725,417.388184 764.935364,418.357025 
	C768.149780,382.179901 771.305786,346.660187 774.449890,311.273865 
	C773.016602,310.848938 772.506897,310.509979 772.094604,310.603027 
	C761.070129,313.090424 750.023499,315.496887 739.083191,318.315460 
	C737.807068,318.644257 736.521057,321.209167 736.291809,322.881561 
	C735.705933,327.156311 735.714355,331.512482 735.394714,336.769592 
z"/>
<path fill="#0225FF" opacity="1.000000" stroke="none" 
	d="
M229.651337,444.425598 
	C207.638367,436.777985 195.770676,420.843201 191.804504,399.037354 
	C187.117203,373.266754 192.948669,350.101776 211.791687,331.108521 
	C219.781723,323.054810 229.511581,317.587463 240.412766,314.539185 
	C244.142273,313.496277 246.349075,311.756317 246.684448,308.018646 
	C247.116577,303.202911 249.620575,301.964600 254.064743,302.981445 
	C263.770599,305.202179 273.783325,306.439819 283.190552,309.537384 
	C307.178833,317.436096 320.273956,334.396698 323.585785,359.554749 
	C327.770172,391.341705 313.827698,421.902924 286.915314,436.755402 
	C269.088470,446.593658 250.047623,449.703827 229.651337,444.425598 
M239.637283,410.879395 
	C249.662766,421.434998 272.183685,420.221283 280.910980,401.639862 
	C286.316864,390.130157 287.466370,377.898163 285.658691,365.565918 
	C283.408203,350.212738 273.140320,340.866150 259.741638,340.675629 
	C253.420975,340.585754 248.049194,342.741333 243.409195,346.917694 
	C227.220810,361.488708 225.041016,393.828369 239.637283,410.879395 
z"/>
<path fill="#0225FF" opacity="1.000000" stroke="none" 
	d="
M447.970184,434.941101 
	C439.959930,438.698456 432.249878,442.222198 424.657257,445.983002 
	C417.065491,449.743317 414.864624,449.080475 411.150604,441.258148 
	C403.380341,424.892761 395.635376,408.515442 387.873840,392.145935 
	C387.170807,390.663177 386.423340,389.201538 385.137299,386.598022 
	C384.688477,389.094177 384.308746,390.544403 384.181641,392.016449 
	C383.049744,405.122894 381.839935,418.224731 380.931580,431.347198 
	C380.632355,435.669647 379.306152,438.234985 374.765747,439.549866 
	C367.438354,441.671844 360.345734,444.599823 353.140350,447.149017 
	C346.104492,449.638214 344.534790,448.740936 345.021637,441.587402 
	C346.717712,416.666138 348.650726,391.761078 350.482574,366.849030 
	C351.102509,358.418091 351.689362,349.984741 352.327667,341.043549 
	C345.653137,342.106049 339.444427,343.094421 333.235718,344.082794 
	C332.986755,343.662811 332.737793,343.242828 332.488831,342.822876 
	C337.258423,334.529846 341.995331,326.217529 346.857666,317.979248 
	C347.260712,317.296387 348.471558,316.921082 349.376404,316.728363 
	C372.281952,311.850555 395.295685,308.409668 418.674622,313.048737 
	C423.022369,313.911469 427.385132,315.412659 431.341583,317.410217 
	C449.033478,326.342499 453.800629,348.512970 441.557983,364.161560 
	C436.002747,371.262299 428.775970,376.229218 420.711945,380.077789 
	C420.138855,380.351288 419.647156,380.795349 418.764191,381.403503 
	C427.260223,395.659271 435.525391,409.869049 444.245972,423.793579 
	C445.560150,425.892029 448.915527,426.855560 451.490234,427.964264 
	C452.907837,428.574707 454.666168,428.393860 456.270905,428.569733 
	C456.444580,429.027344 456.618256,429.484955 456.791931,429.942566 
	C453.968567,431.565491 451.145203,433.188416 447.970184,434.941101 
M413.027771,345.088196 
	C412.093323,340.243103 408.896027,337.432068 404.325226,336.598907 
	C400.775085,335.951782 397.061737,336.137207 393.418945,336.080750 
	C390.442871,336.034576 389.164185,337.352631 388.944092,340.608276 
	C388.282227,350.399170 387.162964,360.158722 386.272400,369.935089 
	C386.132172,371.474274 386.252777,373.037231 386.252777,374.653748 
	C402.398163,372.419952 414.014801,359.794220 413.027771,345.088196 
z"/>
<path fill="#0225FF" opacity="1.000000" stroke="none" 
	d="
M638.837646,328.791382 
	C641.287231,317.875458 648.618164,313.763428 658.612061,311.733612 
	C672.724731,308.867218 673.018921,308.282227 677.616699,321.603394 
	C689.588196,356.288727 701.171387,391.107971 712.962708,425.855743 
	C714.123901,429.277588 715.652954,432.574585 717.168518,436.317841 
	C716.738098,436.567169 716.123962,437.070465 715.420105,437.308380 
	C705.823425,440.551483 696.177979,443.654694 686.624817,447.020264 
	C682.330627,448.533020 679.854858,447.938202 678.633240,443.023651 
	C677.276245,437.564148 674.905884,432.360229 673.472473,426.914520 
	C672.661804,423.834595 671.023926,422.915253 668.196960,422.914337 
	C657.542419,422.910919 646.885803,422.753815 636.236145,422.964722 
	C635.026672,422.988678 633.358765,424.750031 632.752747,426.089905 
	C630.016846,432.138672 627.469971,438.281006 625.094116,444.481262 
	C623.852051,447.722839 622.141907,448.456207 619.018311,446.954468 
	C611.591309,443.383789 604.084778,439.978424 596.570435,436.487762 
	C598.682800,431.033478 600.199463,426.472382 602.215637,422.143982 
	C603.505981,419.373840 603.165039,417.318420 601.583008,414.814301 
	C597.961670,409.082458 594.690308,403.134277 594.548645,394.996796 
	C599.342102,394.996796 603.798828,394.735687 608.208923,395.076721 
	C611.959167,395.366730 613.731934,394.062897 615.074707,390.499603 
	C622.802124,369.993439 630.799255,349.588928 638.837646,328.791382 
M652.187256,370.569885 
	C649.346497,379.121338 646.505798,387.672791 643.573059,396.501068 
	C651.225098,396.501068 657.971375,396.501068 664.954224,396.501068 
	C662.132751,383.130127 659.377625,370.073730 656.526184,356.560974 
	C655.087708,361.287872 653.787109,365.561493 652.187256,370.569885 
z"/>
<path fill="#0225FF" opacity="1.000000" stroke="none" 
	d="
M825.061157,343.091248 
	C822.040771,342.876709 819.490112,342.655151 816.058655,342.357056 
	C817.271118,339.749756 817.883057,338.077301 818.779114,336.574310 
	C821.419250,332.145874 824.745850,328.029816 826.750000,323.341095 
	C829.988647,315.764130 834.980469,313.801361 843.176025,313.745667 
	C865.297363,313.595428 887.409912,312.078613 909.524597,311.076050 
	C916.693909,310.751068 917.286072,311.359833 914.878967,318.184967 
	C912.780640,324.134583 910.183105,329.907837 908.074768,335.854309 
	C906.962097,338.992676 905.115051,340.254883 901.821228,340.343170 
	C892.331909,340.597595 882.848328,341.076752 873.364075,341.503937 
	C871.749084,341.576630 870.142212,341.828339 868.347839,342.016602 
	C867.584167,349.726501 866.852539,357.112701 866.167419,364.029205 
	C873.987732,364.029205 881.608826,364.057739 889.229614,364.020386 
	C895.567749,363.989349 896.361572,365.022552 893.868225,371.009155 
	C891.441284,376.836426 888.607300,382.495880 886.238586,388.345032 
	C885.067993,391.235687 883.265930,392.563141 880.249878,392.549561 
	C874.767639,392.524902 869.285217,392.542572 863.350220,392.542572 
	C862.467957,401.971588 861.641785,410.801514 860.770752,420.110107 
	C876.223816,420.110107 891.148315,420.110107 906.846191,420.110107 
	C906.348572,422.184540 906.325134,423.878387 905.574463,425.139252 
	C902.086426,430.997223 898.767334,437.022980 894.605347,442.380890 
	C892.834045,444.661163 889.095520,446.814972 886.340759,446.708344 
	C863.888367,445.839661 841.457336,444.418335 819.019287,443.175629 
	C815.553955,442.983704 815.048035,441.347076 816.698914,438.589508 
	C816.869629,438.304352 817.003662,437.997620 817.166138,437.707245 
	C825.892822,422.105957 827.912048,413.201996 827.042175,393.817017 
	C823.783386,393.289642 820.460876,392.751923 815.778503,391.994171 
	C819.786926,386.374908 823.295776,381.825287 826.362122,376.994812 
	C827.800781,374.728546 828.965698,371.983948 829.252502,369.347107 
	C830.184570,360.777771 830.653870,352.158112 831.336975,343.084290 
	C829.104004,343.084290 827.317444,343.084290 825.061157,343.091248 
z"/>
<path fill="#0225FF" opacity="1.000000" stroke="none" 
	d="
M535.131226,315.058228 
	C549.697998,310.159210 563.847961,309.744446 577.993896,315.187012 
	C582.795959,317.034637 585.471313,319.793427 585.338867,325.533356 
	C585.158813,333.336212 586.062744,341.160065 586.311829,348.980957 
	C586.352417,350.254944 585.413208,351.560150 584.926819,352.850922 
	C583.788025,352.319855 582.502869,351.976746 581.536682,351.224091 
	C578.000610,348.469177 574.728882,345.351318 571.063477,342.791321 
	C565.621216,338.990387 559.376160,338.105896 552.918884,339.137726 
	C548.745544,339.804596 545.102905,341.699249 544.287720,346.270721 
	C543.491333,350.736237 544.330017,354.861908 548.542053,357.683990 
	C556.005493,362.684692 563.470459,367.689026 570.802002,372.879303 
	C579.167725,378.801575 585.776978,386.167511 587.991150,396.531921 
	C591.244141,411.759033 585.985718,424.253784 574.362549,433.849609 
	C555.791443,449.181488 534.691101,449.884430 512.601135,443.235291 
	C509.040222,442.163422 507.851013,440.058167 507.829529,436.309143 
	C507.782776,428.156494 507.160767,420.007446 506.798035,411.855865 
	C506.734619,410.430878 506.789032,409.000702 506.789032,406.295197 
	C509.372528,408.073822 511.077759,409.158997 512.687439,410.371002 
	C520.783203,416.466675 529.696838,419.760773 539.750366,416.823486 
	C542.538086,416.009003 545.696045,413.491394 546.889648,410.921661 
	C548.484070,407.488953 545.992249,404.321228 543.068054,401.978241 
	C536.053162,396.357666 529.043518,390.729858 522.082581,385.042694 
	C497.238525,364.744690 501.855835,329.802521 531.092285,316.742279 
	C532.305420,316.200378 533.531860,315.688416 535.131226,315.058228 
z"/>
<path fill="#0225FF" opacity="1.000000" stroke="none" 
	d="
M97.952354,415.811249 
	C98.495087,409.065308 99.013100,402.780243 99.558800,396.159302 
	C96.518112,396.023285 93.711678,395.996918 90.924408,395.752228 
	C85.310081,395.259369 84.765312,394.098633 87.771805,389.430817 
	C91.193291,384.118652 94.437775,378.682190 98.076393,373.523499 
	C100.862350,369.573669 102.279831,365.484192 102.283737,360.594482 
	C102.288239,354.953552 103.002144,349.313202 103.452255,343.057404 
	C99.079910,343.057404 94.976791,343.199768 90.887955,343.019012 
	C86.431107,342.821960 85.746460,341.659698 87.974007,337.839111 
	C92.243134,330.516785 96.631660,323.259094 101.199303,316.120941 
	C101.900543,315.025116 103.798676,314.169708 105.180809,314.112640 
	C132.792801,312.972595 160.409592,311.946411 188.027313,310.949951 
	C193.450806,310.754211 194.012939,311.587921 192.138504,316.593140 
	C190.041992,322.191376 187.585617,327.673767 185.825577,333.373230 
	C184.345581,338.165863 181.448807,339.718872 176.677795,339.813324 
	C166.527573,340.014374 156.385696,340.647003 146.241150,341.118652 
	C144.272797,341.210144 142.307800,341.374115 139.826797,341.538788 
	C139.198425,349.674286 138.590637,357.543457 138.026428,364.848541 
	C148.881668,364.848541 159.319595,364.889801 169.756989,364.832764 
	C175.829407,364.799591 176.538147,365.615295 174.314224,371.464478 
	C171.836807,377.980408 168.997910,384.358643 166.507202,390.869812 
	C165.313736,393.989746 163.326187,395.140228 160.050720,395.082794 
	C151.902237,394.939880 143.749573,395.035736 135.136414,395.035736 
	C134.068970,407.711212 132.848923,419.754761 132.152145,431.828491 
	C131.915634,435.926392 130.533340,438.251160 126.716446,439.612946 
	C119.371880,442.233368 112.217804,445.423279 104.794472,447.776917 
	C97.990845,449.934082 95.830475,448.157166 96.153908,441.167206 
	C96.538330,432.859283 97.318787,424.569672 97.952354,415.811249 
z"/>
<path fill="#0225FF" opacity="1.000000" stroke="none" 
	d="
M735.439880,336.302856 
	C735.714355,331.512482 735.705933,327.156311 736.291809,322.881561 
	C736.521057,321.209167 737.807068,318.644257 739.083191,318.315460 
	C750.023499,315.496887 761.070129,313.090424 772.094604,310.603027 
	C772.506897,310.509979 773.016602,310.848938 774.449890,311.273865 
	C771.305786,346.660187 768.149780,382.179901 764.935364,418.357025 
	C774.805725,417.388184 784.187988,416.465027 793.570862,415.547333 
	C797.382507,415.174530 801.190979,414.755341 805.009094,414.465240 
	C808.325623,414.213287 809.688477,415.404633 808.398987,418.927765 
	C806.172974,425.009583 804.197937,431.182861 802.075378,437.303131 
	C800.340088,442.306427 796.637024,444.762970 791.485291,444.933258 
	C769.843506,445.648712 748.198975,446.283844 726.555664,446.953064 
	C723.125916,447.059113 720.350525,446.168304 722.741333,442.179138 
	C730.594055,429.076416 729.542480,414.317749 730.780029,400.044128 
	C732.606628,378.977600 733.883667,357.863464 735.439880,336.302856 
z"/>
<path fill="#FDFEFF" opacity="1.000000" stroke="none" 
	d="
M239.382568,410.627533 
	C225.041016,393.828369 227.220810,361.488708 243.409195,346.917694 
	C248.049194,342.741333 253.420975,340.585754 259.741638,340.675629 
	C273.140320,340.866150 283.408203,350.212738 285.658691,365.565918 
	C287.466370,377.898163 286.316864,390.130157 280.910980,401.639862 
	C272.183685,420.221283 249.662766,421.434998 239.382568,410.627533 
z"/>
<path fill="#FBFCFF" opacity="1.000000" stroke="none" 
	d="
M413.082458,345.516357 
	C414.014801,359.794220 402.398163,372.419952 386.252777,374.653748 
	C386.252777,373.037231 386.132172,371.474274 386.272400,369.935089 
	C387.162964,360.158722 388.282227,350.399170 388.944092,340.608276 
	C389.164185,337.352631 390.442871,336.034576 393.418945,336.080750 
	C397.061737,336.137207 400.775085,335.951782 404.325226,336.598907 
	C408.896027,337.432068 412.093323,340.243103 413.082458,345.516357 
z"/>
<path fill="#F5F6FF" opacity="1.000000" stroke="none" 
	d="
M652.336914,370.202515 
	C653.787109,365.561493 655.087708,361.287872 656.526184,356.560974 
	C659.377625,370.073730 662.132751,383.130127 664.954224,396.501068 
	C657.971375,396.501068 651.225098,396.501068 643.573059,396.501068 
	C646.505798,387.672791 649.346497,379.121338 652.336914,370.202515 
z"/>
</svg>